# xmcd
#
# Track frame offsets:
#	150
#	16140
#	26553
#	39523
#	53063
#	67640
#	82758
#	100765
#	113515
#	127593
#	144255
#	155005
#	170290
#	183345
#
# Disc length: 2653 seconds
#
# Revision: 1
# Processed by: cddbd v1.5.1PL0 Copyright (c) Steve Scherf et al.
# Submitted via: CDex 1.50Beta5
#
DISCID=940a5b0e
DTITLE=青い三角定規 - 青い三角定規
DYEAR=1900
DGENRE=Folk
TTITLE0=翼を忘れた天使たち
TTITLE1=太陽がくれた季節
TTITLE2=素足の世代
TTITLE3=勲章なんかほしくない
TTITLE4=夏に来た娘
TTITLE5=ぼくらの船出
TTITLE6=自由の海へ
TTITLE7=結婚しようよ
TTITLE8=戦争を知らない子供たち
TTITLE9=愛の湖
TTITLE10=太陽のあいつ
TTITLE11=遠い世界に
TTITLE12=君の祖国を
TTITLE13=明日
EXTD=
EXTT0=
EXTT1=
EXTT2=
EXTT3=
EXTT4=
EXTT5=
EXTT6=
EXTT7=
EXTT8=
EXTT9=
EXTT10=
EXTT11=
EXTT12=
EXTT13=
PLAYORDER=
